<svg width="256" height="75" viewBox="0 0 256 75" fill="none" xmlns="http://www.w3.org/2000/svg">
<mask id="path-1-inside-1_31_46" fill="white">
<rect x="1.75" y="54.5178" width="65.8298" height="7.74468" rx="1"/>
</mask>
<rect x="1.75" y="54.5178" width="65.8298" height="7.74468" rx="1" fill="#02396C" stroke="#0C1E40" stroke-width="3" mask="url(#path-1-inside-1_31_46)"/>
<rect x="44.3458" y="44.837" width="23.234" height="15.4894" fill="#02396C"/>
<path d="M58.25 32L68.2093 47H48.2907L58.25 32Z" fill="#02396C"/>
<rect x="44.3458" y="31.2838" width="13.5532" height="13.5532" fill="#02396C"/>
<circle cx="13.367" cy="62.2625" r="5.80851" fill="#02396C"/>
<circle cx="55.9627" cy="62.2625" r="5.80851" fill="#02396C"/>
<path d="M50.2833 62.0044H44.2167V37.7377C44.2167 34.8778 44.2167 33.4479 45.1051 32.5595C45.9936 31.671 47.4235 31.671 50.2833 31.671H52.5134C55.8689 31.671 57.5467 31.671 58.9374 32.4585C60.3282 33.2459 61.1915 34.6846 62.9178 37.5618L66.7543 43.956C67.6134 45.3878 68.0432 46.1039 68.2631 46.8987C68.4833 47.6934 68.4833 48.5285 68.4833 50.1983V55.9377C68.4833 58.7975 68.4833 60.2274 67.5949 61.1159C66.7064 62.0044 65.2765 62.0044 62.4167 62.0044M50.2833 62.0044C50.2833 65.355 52.9994 68.071 56.35 68.071C59.7006 68.071 62.4167 65.355 62.4167 62.0044M50.2833 62.0044C50.2833 58.6537 52.9994 55.9377 56.35 55.9377C59.7006 55.9377 62.4167 58.6537 62.4167 62.0044M66.9667 46.8377H59.3833C56.5235 46.8377 55.0936 46.8377 54.2051 45.9492C53.3167 45.0608 53.3167 43.6309 53.3167 40.771V39.2544" stroke="#0C1E40" stroke-width="1.5" stroke-linecap="round" stroke-linejoin="round"/>
<path d="M19.9499 62.0044C19.9499 65.355 17.2338 68.071 13.8833 68.071C10.5327 68.071 7.81659 65.355 7.81659 62.0044C7.81659 58.6538 10.5327 55.9377 13.8833 55.9377C17.2338 55.9377 19.9499 58.6538 19.9499 62.0044Z" stroke="#0C1E40" stroke-width="1.5" stroke-linecap="round" stroke-linejoin="round"/>
<rect x="0.75" y="24.7451" width="42.265" height="28.1767" rx="7" fill="#02396C"/>
<path d="M1.49746 31.1203C1.01493 33.3399 0.75 35.7569 0.75 38.2855C0.75 40.8142 1.01493 43.2311 1.49746 45.4507C2.11937 48.3116 2.43032 49.7422 4.45139 51.3711C6.47246 53 8.50391 53 12.5668 53H31.2373C35.3003 53 37.3317 53 39.3527 51.3711C41.3737 49.7422 41.685 48.3116 42.3066 45.4507C42.7893 43.2311 43.0541 40.8142 43.0541 38.2855C43.0541 35.7569 42.7893 33.3399 42.3066 31.1203C41.685 28.2594 41.3737 26.8289 39.3527 25.2C37.3317 23.571 35.3003 23.571 31.2373 23.571H12.5668C8.50391 23.571 6.47246 23.571 4.45139 25.2C2.43032 26.8289 2.11937 28.2594 1.49746 31.1203Z" stroke="#0C1E40" stroke-width="1.5" stroke-linecap="round" stroke-linejoin="round"/>
<path d="M29.2593 23.571V53M14.5448 53V23.571" stroke="#0C1E40" stroke-width="1.5" stroke-linecap="round" stroke-linejoin="round"/>
<circle cx="34.1348" cy="19.3848" r="10.7693" fill="#04386B"/>
<path d="M20.958 6.20801C28.2353 -1.0693 40.034 -1.06928 47.3115 6.20801C54.5888 13.4853 54.5888 25.284 47.3115 32.5615L34.1348 45.7383L20.958 32.5615C13.6807 25.284 13.6807 13.4853 20.958 6.20801ZM34.1348 10.0195C28.9624 10.0195 24.7695 14.2124 24.7695 19.3848C24.7695 24.5571 28.9624 28.75 34.1348 28.75C39.3071 28.75 43.5 24.5571 43.5 19.3848C43.5 14.2124 39.3071 10.0195 34.1348 10.0195ZM34.1348 15.8271C36.0997 15.8271 37.6924 17.4199 37.6924 19.3848C37.6924 21.3497 36.0997 22.9424 34.1348 22.9424C32.1698 22.9424 30.5771 21.3497 30.5771 19.3848C30.5772 17.4199 32.1698 15.8272 34.1348 15.8271Z" fill="#0591A6" stroke="#0C1E40" stroke-width="1.5"/>
<mask id="path-14-outside-2_31_46" maskUnits="userSpaceOnUse" x="79.75" y="23.071" width="175" height="41" fill="black">
<rect fill="white" x="79.75" y="23.071" width="175" height="41"/>
<path d="M81.392 62.071V27.1619H95.8125C98.4261 27.1619 100.682 27.6733 102.58 28.696C104.489 29.7074 105.96 31.1222 106.994 32.9404C108.028 34.7472 108.545 36.8494 108.545 39.2472C108.545 41.6563 108.017 43.7642 106.96 45.571C105.915 47.3665 104.42 48.7585 102.477 49.7472C100.534 50.7358 98.2273 51.2301 95.5568 51.2301H86.6591V44.5824H93.9886C95.2614 44.5824 96.3239 44.3608 97.1761 43.9176C98.0398 43.4744 98.6932 42.8551 99.1364 42.0597C99.5795 41.2529 99.8011 40.3154 99.8011 39.2472C99.8011 38.1676 99.5795 37.2358 99.1364 36.4517C98.6932 35.6563 98.0398 35.0426 97.1761 34.6108C96.3125 34.179 95.25 33.9631 93.9886 33.9631H89.8295V62.071H81.392ZM112.705 62.071V35.8892H121.04V62.071H112.705ZM116.881 32.8381C115.71 32.8381 114.705 32.4517 113.864 31.679C113.023 30.8949 112.602 29.9517 112.602 28.8494C112.602 27.7585 113.023 26.8267 113.864 26.054C114.705 25.2699 115.71 24.8779 116.881 24.8779C118.063 24.8779 119.068 25.2699 119.898 26.054C120.739 26.8267 121.159 27.7585 121.159 28.8494C121.159 29.9517 120.739 30.8949 119.898 31.679C119.068 32.4517 118.063 32.8381 116.881 32.8381ZM138.567 62.5654C135.805 62.5654 133.436 61.9972 131.459 60.8608C129.493 59.7244 127.982 58.1449 126.925 56.1222C125.868 54.0881 125.339 51.7358 125.339 49.0654C125.339 46.3835 125.868 44.0313 126.925 42.0085C127.993 39.9744 129.51 38.3892 131.476 37.2529C133.453 36.1165 135.811 35.5483 138.55 35.5483C140.97 35.5483 143.078 35.9858 144.874 36.8608C146.68 37.7358 148.089 38.9744 149.101 40.5767C150.124 42.1676 150.663 44.0369 150.72 46.1847H142.93C142.771 44.8438 142.317 43.7926 141.567 43.0313C140.828 42.2699 139.862 41.8892 138.669 41.8892C137.703 41.8892 136.857 42.1619 136.129 42.7074C135.402 43.2415 134.834 44.0369 134.425 45.0938C134.027 46.1392 133.828 47.4347 133.828 48.9801C133.828 50.5256 134.027 51.8324 134.425 52.9006C134.834 53.9574 135.402 54.7585 136.129 55.304C136.857 55.8381 137.703 56.1051 138.669 56.1051C139.442 56.1051 140.124 55.9404 140.714 55.6108C141.317 55.2813 141.811 54.7983 142.197 54.1619C142.584 53.5142 142.828 52.7301 142.93 51.8097H150.72C150.641 53.9688 150.101 55.8551 149.101 57.4688C148.112 59.0824 146.72 60.3381 144.925 61.2358C143.141 62.1222 141.021 62.5654 138.567 62.5654ZM162.503 55.2017L162.537 45.2642H163.696L171.06 35.8892H180.503L169.56 49.321H167.361L162.503 55.2017ZM154.986 62.071V27.1619H163.321V62.071H154.986ZM171.247 62.071L164.395 51.196L169.884 45.2813L180.878 62.071H171.247ZM183.486 62.071V27.1619H191.923V55.2188H206.446V62.071H183.486ZM224.514 35.8892V42.0256H207.997V35.8892H224.514ZM211.457 29.6165H219.793V53.8381C219.793 54.3494 219.872 54.7642 220.031 55.0824C220.202 55.3892 220.446 55.6108 220.764 55.7472C221.082 55.8722 221.463 55.9347 221.906 55.9347C222.224 55.9347 222.56 55.9063 222.912 55.8494C223.276 55.7813 223.548 55.7244 223.73 55.679L224.991 61.696C224.594 61.8097 224.031 61.9517 223.304 62.1222C222.588 62.2926 221.73 62.4006 220.73 62.446C218.776 62.5369 217.099 62.3097 215.702 61.7642C214.315 61.2074 213.253 60.3438 212.514 59.1733C211.787 58.0029 211.435 56.5313 211.457 54.7585V29.6165ZM240.724 62.5654C237.986 62.5654 235.622 62.0256 233.634 60.946C231.656 59.8551 230.134 58.304 229.065 56.2926C228.009 54.2699 227.48 51.8665 227.48 49.0824C227.48 46.3779 228.014 44.0142 229.082 41.9915C230.151 39.9574 231.656 38.3779 233.599 37.2529C235.543 36.1165 237.832 35.5483 240.469 35.5483C242.332 35.5483 244.037 35.8381 245.582 36.4176C247.128 36.9972 248.463 37.8551 249.588 38.9915C250.713 40.1279 251.588 41.5313 252.213 43.2017C252.838 44.8608 253.151 46.7642 253.151 48.9119V50.9915H230.395V46.1506H245.395C245.384 45.2642 245.173 44.4744 244.764 43.7813C244.355 43.0881 243.793 42.5483 243.077 42.1619C242.372 41.7642 241.56 41.5654 240.639 41.5654C239.707 41.5654 238.872 41.7756 238.134 42.196C237.395 42.6051 236.81 43.1676 236.378 43.8835C235.946 44.5881 235.719 45.3892 235.696 46.2869V51.2131C235.696 52.2813 235.906 53.2188 236.327 54.0256C236.747 54.821 237.344 55.4404 238.116 55.8835C238.889 56.3267 239.81 56.5483 240.878 56.5483C241.616 56.5483 242.287 56.446 242.889 56.2415C243.491 56.0369 244.009 55.7358 244.44 55.3381C244.872 54.9404 245.196 54.4517 245.412 53.8722L253.065 54.0938C252.747 55.8097 252.048 57.304 250.969 58.5767C249.901 59.8381 248.497 60.821 246.759 61.5256C245.02 62.2188 243.009 62.5654 240.724 62.5654Z"/>
</mask>
<path d="M81.392 62.071V27.1619H95.8125C98.4261 27.1619 100.682 27.6733 102.58 28.696C104.489 29.7074 105.96 31.1222 106.994 32.9404C108.028 34.7472 108.545 36.8494 108.545 39.2472C108.545 41.6563 108.017 43.7642 106.96 45.571C105.915 47.3665 104.42 48.7585 102.477 49.7472C100.534 50.7358 98.2273 51.2301 95.5568 51.2301H86.6591V44.5824H93.9886C95.2614 44.5824 96.3239 44.3608 97.1761 43.9176C98.0398 43.4744 98.6932 42.8551 99.1364 42.0597C99.5795 41.2529 99.8011 40.3154 99.8011 39.2472C99.8011 38.1676 99.5795 37.2358 99.1364 36.4517C98.6932 35.6563 98.0398 35.0426 97.1761 34.6108C96.3125 34.179 95.25 33.9631 93.9886 33.9631H89.8295V62.071H81.392ZM112.705 62.071V35.8892H121.04V62.071H112.705ZM116.881 32.8381C115.71 32.8381 114.705 32.4517 113.864 31.679C113.023 30.8949 112.602 29.9517 112.602 28.8494C112.602 27.7585 113.023 26.8267 113.864 26.054C114.705 25.2699 115.71 24.8779 116.881 24.8779C118.063 24.8779 119.068 25.2699 119.898 26.054C120.739 26.8267 121.159 27.7585 121.159 28.8494C121.159 29.9517 120.739 30.8949 119.898 31.679C119.068 32.4517 118.063 32.8381 116.881 32.8381ZM138.567 62.5654C135.805 62.5654 133.436 61.9972 131.459 60.8608C129.493 59.7244 127.982 58.1449 126.925 56.1222C125.868 54.0881 125.339 51.7358 125.339 49.0654C125.339 46.3835 125.868 44.0313 126.925 42.0085C127.993 39.9744 129.51 38.3892 131.476 37.2529C133.453 36.1165 135.811 35.5483 138.55 35.5483C140.97 35.5483 143.078 35.9858 144.874 36.8608C146.68 37.7358 148.089 38.9744 149.101 40.5767C150.124 42.1676 150.663 44.0369 150.72 46.1847H142.93C142.771 44.8438 142.317 43.7926 141.567 43.0313C140.828 42.2699 139.862 41.8892 138.669 41.8892C137.703 41.8892 136.857 42.1619 136.129 42.7074C135.402 43.2415 134.834 44.0369 134.425 45.0938C134.027 46.1392 133.828 47.4347 133.828 48.9801C133.828 50.5256 134.027 51.8324 134.425 52.9006C134.834 53.9574 135.402 54.7585 136.129 55.304C136.857 55.8381 137.703 56.1051 138.669 56.1051C139.442 56.1051 140.124 55.9404 140.714 55.6108C141.317 55.2813 141.811 54.7983 142.197 54.1619C142.584 53.5142 142.828 52.7301 142.93 51.8097H150.72C150.641 53.9688 150.101 55.8551 149.101 57.4688C148.112 59.0824 146.72 60.3381 144.925 61.2358C143.141 62.1222 141.021 62.5654 138.567 62.5654ZM162.503 55.2017L162.537 45.2642H163.696L171.06 35.8892H180.503L169.56 49.321H167.361L162.503 55.2017ZM154.986 62.071V27.1619H163.321V62.071H154.986ZM171.247 62.071L164.395 51.196L169.884 45.2813L180.878 62.071H171.247ZM183.486 62.071V27.1619H191.923V55.2188H206.446V62.071H183.486ZM224.514 35.8892V42.0256H207.997V35.8892H224.514ZM211.457 29.6165H219.793V53.8381C219.793 54.3494 219.872 54.7642 220.031 55.0824C220.202 55.3892 220.446 55.6108 220.764 55.7472C221.082 55.8722 221.463 55.9347 221.906 55.9347C222.224 55.9347 222.56 55.9063 222.912 55.8494C223.276 55.7813 223.548 55.7244 223.73 55.679L224.991 61.696C224.594 61.8097 224.031 61.9517 223.304 62.1222C222.588 62.2926 221.73 62.4006 220.73 62.446C218.776 62.5369 217.099 62.3097 215.702 61.7642C214.315 61.2074 213.253 60.3438 212.514 59.1733C211.787 58.0029 211.435 56.5313 211.457 54.7585V29.6165ZM240.724 62.5654C237.986 62.5654 235.622 62.0256 233.634 60.946C231.656 59.8551 230.134 58.304 229.065 56.2926C228.009 54.2699 227.48 51.8665 227.48 49.0824C227.48 46.3779 228.014 44.0142 229.082 41.9915C230.151 39.9574 231.656 38.3779 233.599 37.2529C235.543 36.1165 237.832 35.5483 240.469 35.5483C242.332 35.5483 244.037 35.8381 245.582 36.4176C247.128 36.9972 248.463 37.8551 249.588 38.9915C250.713 40.1279 251.588 41.5313 252.213 43.2017C252.838 44.8608 253.151 46.7642 253.151 48.9119V50.9915H230.395V46.1506H245.395C245.384 45.2642 245.173 44.4744 244.764 43.7813C244.355 43.0881 243.793 42.5483 243.077 42.1619C242.372 41.7642 241.56 41.5654 240.639 41.5654C239.707 41.5654 238.872 41.7756 238.134 42.196C237.395 42.6051 236.81 43.1676 236.378 43.8835C235.946 44.5881 235.719 45.3892 235.696 46.2869V51.2131C235.696 52.2813 235.906 53.2188 236.327 54.0256C236.747 54.821 237.344 55.4404 238.116 55.8835C238.889 56.3267 239.81 56.5483 240.878 56.5483C241.616 56.5483 242.287 56.446 242.889 56.2415C243.491 56.0369 244.009 55.7358 244.44 55.3381C244.872 54.9404 245.196 54.4517 245.412 53.8722L253.065 54.0938C252.747 55.8097 252.048 57.304 250.969 58.5767C249.901 59.8381 248.497 60.821 246.759 61.5256C245.02 62.2188 243.009 62.5654 240.724 62.5654Z" fill="#04386B"/>
<path d="M81.392 62.071H80.392V63.071H81.392V62.071ZM81.392 27.1619V26.1619H80.392V27.1619H81.392ZM102.58 28.696L102.105 29.5764L102.111 29.5797L102.58 28.696ZM106.994 32.9404L106.125 33.4347L106.126 33.4371L106.994 32.9404ZM106.96 45.571L106.097 45.0662L106.096 45.0678L106.96 45.571ZM102.477 49.7472L102.931 50.6385V50.6385L102.477 49.7472ZM86.6591 51.2301H85.6591V52.2301H86.6591V51.2301ZM86.6591 44.5824V43.5824H85.6591V44.5824H86.6591ZM97.1761 43.9176L96.7196 43.0279L96.7148 43.0304L97.1761 43.9176ZM99.1364 42.0597L100.01 42.5464L100.013 42.5411L99.1364 42.0597ZM99.1364 36.4517L98.2628 36.9384L98.2658 36.9438L99.1364 36.4517ZM97.1761 34.6108L96.7289 35.5052V35.5052L97.1761 34.6108ZM89.8295 33.9631V32.9631H88.8295V33.9631H89.8295ZM89.8295 62.071V63.071H90.8295V62.071H89.8295ZM81.392 62.071H82.392V27.1619H81.392H80.392V62.071H81.392ZM81.392 27.1619V28.1619H95.8125V27.1619V26.1619H81.392V27.1619ZM95.8125 27.1619V28.1619C98.2954 28.1619 100.381 28.6472 102.105 29.5763L102.58 28.696L103.054 27.8157C100.983 26.6994 98.5569 26.1619 95.8125 26.1619V27.1619ZM102.58 28.696L102.111 29.5797C103.858 30.5051 105.188 31.7874 106.125 33.4347L106.994 32.9404L107.864 32.446C106.732 30.4569 105.119 28.9096 103.048 27.8124L102.58 28.696ZM106.994 32.9404L106.126 33.4371C107.062 35.071 107.545 36.9969 107.545 39.2472H108.545H109.545C109.545 36.702 108.995 34.4233 107.862 32.4436L106.994 32.9404ZM108.545 39.2472H107.545C107.545 41.506 107.051 43.4344 106.097 45.0662L106.96 45.571L107.823 46.0759C108.983 44.0941 109.545 41.8065 109.545 39.2472H108.545ZM106.96 45.571L106.096 45.0678C105.152 46.6887 103.805 47.9499 102.024 48.8559L102.477 49.7472L102.931 50.6385C105.036 49.5672 106.677 48.0443 107.824 46.0742L106.96 45.571ZM102.477 49.7472L102.024 48.8559C100.249 49.7588 98.1046 50.2301 95.5568 50.2301V51.2301V52.2301C98.35 52.2301 100.819 51.7129 102.931 50.6385L102.477 49.7472ZM95.5568 51.2301V50.2301H86.6591V51.2301V52.2301H95.5568V51.2301ZM86.6591 51.2301H87.6591V44.5824H86.6591H85.6591V51.2301H86.6591ZM86.6591 44.5824V45.5824H93.9886V44.5824V43.5824H86.6591V44.5824ZM93.9886 44.5824V45.5824C95.3718 45.5824 96.604 45.3422 97.6375 44.8048L97.1761 43.9176L96.7148 43.0304C96.0437 43.3794 95.1509 43.5824 93.9886 43.5824V44.5824ZM97.1761 43.9176L97.6327 44.8073C98.6599 44.2802 99.4641 43.526 100.01 42.5464L99.1364 42.0597L98.2628 41.573C97.9222 42.1843 97.4197 42.6687 96.7196 43.0279L97.1761 43.9176ZM99.1364 42.0597L100.013 42.5411C100.549 41.5646 100.801 40.4565 100.801 39.2472H99.8011H98.8011C98.8011 40.1742 98.6099 40.9411 98.2599 41.5782L99.1364 42.0597ZM99.8011 39.2472H100.801C100.801 38.0294 100.55 36.9211 100.007 35.9597L99.1364 36.4517L98.2658 36.9438C98.6087 37.5505 98.8011 38.3058 98.8011 39.2472H99.8011ZM99.1364 36.4517L100.01 35.965C99.4628 34.983 98.6554 34.2324 97.6234 33.7164L97.1761 34.6108L96.7289 35.5052C97.4241 35.8528 97.9236 36.3295 98.2628 36.9384L99.1364 36.4517ZM97.1761 34.6108L97.6234 33.7164C96.585 33.1972 95.3595 32.9631 93.9886 32.9631V33.9631V34.9631C95.1405 34.9631 96.04 35.1608 96.7289 35.5052L97.1761 34.6108ZM93.9886 33.9631V32.9631H89.8295V33.9631V34.9631H93.9886V33.9631ZM89.8295 33.9631H88.8295V62.071H89.8295H90.8295V33.9631H89.8295ZM89.8295 62.071V61.071H81.392V62.071V63.071H89.8295V62.071ZM112.705 62.071H111.705V63.071H112.705V62.071ZM112.705 35.8892V34.8892H111.705V35.8892H112.705ZM121.04 35.8892H122.04V34.8892H121.04V35.8892ZM121.04 62.071V63.071H122.04V62.071H121.04ZM113.864 31.679L113.182 32.4104L113.187 32.4153L113.864 31.679ZM113.864 26.054L114.54 26.7903L114.546 26.7854L113.864 26.054ZM119.898 26.054L119.211 26.7808L119.221 26.7903L119.898 26.054ZM119.898 31.679L120.579 32.4107L120.58 32.4104L119.898 31.679ZM112.705 62.071H113.705V35.8892H112.705H111.705V62.071H112.705ZM112.705 35.8892V36.8892H121.04V35.8892V34.8892H112.705V35.8892ZM121.04 35.8892H120.04V62.071H121.04H122.04V35.8892H121.04ZM121.04 62.071V61.071H112.705V62.071V63.071H121.04V62.071ZM116.881 32.8381V31.8381C115.954 31.8381 115.192 31.5412 114.54 30.9427L113.864 31.679L113.187 32.4153C114.217 33.3622 115.467 33.8381 116.881 33.8381V32.8381ZM113.864 31.679L114.546 30.9476C113.898 30.3435 113.602 29.6612 113.602 28.8494H112.602H111.602C111.602 30.2423 112.148 31.4463 113.182 32.4104L113.864 31.679ZM112.602 28.8494H113.602C113.602 28.0529 113.895 27.3837 114.54 26.7903L113.864 26.054L113.187 25.3177C112.151 26.2697 111.602 27.4642 111.602 28.8494H112.602ZM113.864 26.054L114.546 26.7854C115.198 26.1773 115.958 25.8779 116.881 25.8779V24.8779V23.8779C115.462 23.8779 114.211 24.3625 113.182 25.3226L113.864 26.054ZM116.881 24.8779V25.8779C117.817 25.8779 118.574 26.1789 119.211 26.7807L119.898 26.054L120.585 25.3273C119.562 24.3609 118.308 23.8779 116.881 23.8779V24.8779ZM119.898 26.054L119.221 26.7903C119.867 27.3837 120.159 28.0529 120.159 28.8494H121.159H122.159C122.159 27.4642 121.61 26.2697 120.574 25.3177L119.898 26.054ZM121.159 28.8494H120.159C120.159 29.6612 119.864 30.3435 119.216 30.9476L119.898 31.679L120.58 32.4104C121.614 31.4463 122.159 30.2423 122.159 28.8494H121.159ZM119.898 31.679L119.216 30.9473C118.58 31.5397 117.821 31.8381 116.881 31.8381V32.8381V33.8381C118.304 33.8381 119.556 33.3638 120.579 32.4107L119.898 31.679ZM131.459 60.8608L130.958 61.7266L130.961 61.7278L131.459 60.8608ZM126.925 56.1222L126.037 56.5832L126.038 56.5853L126.925 56.1222ZM126.925 42.0085L126.039 41.5436L126.038 41.5455L126.925 42.0085ZM131.476 37.2529L130.978 36.3858L130.975 36.3871L131.476 37.2529ZM144.874 36.8608L144.435 37.7597L144.438 37.7608L144.874 36.8608ZM149.101 40.5767L148.255 41.1105L148.26 41.1175L149.101 40.5767ZM150.72 46.1847V47.1847H151.747L151.72 46.1582L150.72 46.1847ZM142.93 46.1847L141.937 46.3025L142.042 47.1847H142.93V46.1847ZM141.567 43.0313L140.849 43.7276L140.854 43.733L141.567 43.0313ZM136.129 42.7074L136.721 43.5134L136.729 43.5074L136.129 42.7074ZM134.425 45.0938L133.492 44.7328L133.49 44.7382L134.425 45.0938ZM134.425 52.9006L133.487 53.2495L133.492 53.2616L134.425 52.9006ZM136.129 55.304L135.529 56.104L135.537 56.11L136.129 55.304ZM140.714 55.6108L140.234 54.7335L140.227 54.7374L140.714 55.6108ZM142.197 54.1619L143.052 54.6809L143.056 54.6742L142.197 54.1619ZM142.93 51.8097V50.8097H142.035L141.937 51.6992L142.93 51.8097ZM150.72 51.8097L151.719 51.8465L151.758 50.8097H150.72V51.8097ZM149.101 57.4688L148.251 56.942L148.248 56.9463L149.101 57.4688ZM144.925 61.2358L145.37 62.1314L145.372 62.1302L144.925 61.2358ZM138.567 62.5654V61.5654C135.943 61.5654 133.754 61.0264 131.957 59.9938L131.459 60.8608L130.961 61.7278C133.118 62.968 135.667 63.5654 138.567 63.5654V62.5654ZM131.459 60.8608L131.959 59.995C130.158 58.9541 128.78 57.5146 127.811 55.6591L126.925 56.1222L126.038 56.5853C127.183 58.7752 128.827 60.4948 130.958 61.7266L131.459 60.8608ZM126.925 56.1222L127.812 55.6611C126.841 53.7913 126.339 51.6018 126.339 49.0654H125.339H124.339C124.339 51.8698 124.895 54.3849 126.037 56.5832L126.925 56.1222ZM125.339 49.0654H126.339C126.339 46.5166 126.841 44.3283 127.811 42.4716L126.925 42.0085L126.038 41.5455C124.895 43.7342 124.339 46.2505 124.339 49.0654H125.339ZM126.925 42.0085L127.81 42.4735C128.791 40.6046 130.176 39.1592 131.976 38.1186L131.476 37.2529L130.975 36.3871C128.844 37.6192 127.194 39.3443 126.039 41.5436L126.925 42.0085ZM131.476 37.2529L131.974 38.1199C133.772 37.0866 135.951 36.5483 138.55 36.5483V35.5483V34.5483C135.671 34.5483 133.134 35.1464 130.978 36.3858L131.476 37.2529ZM138.55 35.5483V36.5483C140.85 36.5483 142.802 36.9639 144.435 37.7597L144.874 36.8608L145.312 35.9619C143.354 35.0078 141.09 34.5483 138.55 34.5483V35.5483ZM144.874 36.8608L144.438 37.7608C146.087 38.5595 147.35 39.6757 148.255 41.1105L149.101 40.5767L149.946 40.043C148.829 38.2732 147.274 36.9121 145.309 35.9608L144.874 36.8608ZM149.101 40.5767L148.26 41.1175C149.171 42.5346 149.668 44.2207 149.721 46.2111L150.72 46.1847L151.72 46.1582C151.659 43.8532 151.076 41.8007 149.942 40.036L149.101 40.5767ZM150.72 46.1847V45.1847H142.93V46.1847V47.1847H150.72V46.1847ZM142.93 46.1847L143.923 46.0669C143.745 44.5645 143.222 43.2866 142.279 42.3295L141.567 43.0313L140.854 43.733C141.412 44.2986 141.797 45.123 141.937 46.3025L142.93 46.1847ZM141.567 43.0313L142.285 42.335C141.333 41.3544 140.096 40.8892 138.669 40.8892V41.8892V42.8892C139.629 42.8892 140.323 43.1854 140.849 43.7276L141.567 43.0313ZM138.669 41.8892V40.8892C137.501 40.8892 136.441 41.2237 135.529 41.9074L136.129 42.7074L136.729 43.5074C137.272 43.1002 137.905 42.8892 138.669 42.8892V41.8892ZM136.129 42.7074L135.537 41.9014C134.621 42.574 133.953 43.5435 133.492 44.7328L134.425 45.0938L135.357 45.4548C135.715 44.5304 136.182 43.909 136.721 43.5134L136.129 42.7074ZM134.425 45.0938L133.49 44.7382C133.036 45.9315 132.828 47.3563 132.828 48.9801H133.828H134.828C134.828 47.5131 135.018 46.3469 135.359 45.4493L134.425 45.0938ZM133.828 48.9801H132.828C132.828 50.6051 133.036 52.0378 133.488 53.2495L134.425 52.9006L135.362 52.5516C135.018 51.627 134.828 50.4461 134.828 48.9801H133.828ZM134.425 52.9006L133.492 53.2616C133.952 54.4501 134.619 55.4215 135.529 56.104L136.129 55.304L136.729 54.504C136.185 54.0956 135.715 53.4647 135.357 52.5396L134.425 52.9006ZM136.129 55.304L135.537 56.11C136.449 56.7792 137.506 57.1051 138.669 57.1051V56.1051V55.1051C137.9 55.1051 137.264 54.8969 136.721 54.498L136.129 55.304ZM138.669 56.1051V57.1051C139.588 57.1051 140.442 56.908 141.202 56.4842L140.714 55.6108L140.227 54.7374C139.805 54.9728 139.296 55.1051 138.669 55.1051V56.1051ZM140.714 55.6108L141.194 56.4881C141.964 56.0671 142.583 55.4545 143.052 54.6809L142.197 54.1619L141.343 53.643C141.04 54.1421 140.67 54.4955 140.234 54.7335L140.714 55.6108ZM142.197 54.1619L143.056 54.6742C143.531 53.8791 143.81 52.951 143.924 51.9201L142.93 51.8097L141.937 51.6992C141.847 52.5093 141.637 53.1494 141.339 53.6497L142.197 54.1619ZM142.93 51.8097V52.8097H150.72V51.8097V50.8097H142.93V51.8097ZM150.72 51.8097L149.721 51.7729C149.647 53.7828 149.147 55.4954 148.251 56.942L149.101 57.4688L149.951 57.9955C151.054 56.2149 151.634 54.1547 151.719 51.8465L150.72 51.8097ZM149.101 57.4688L148.248 56.9463C147.363 58.3907 146.116 59.522 144.478 60.3414L144.925 61.2358L145.372 62.1302C147.324 61.1542 148.861 59.7741 149.954 57.9912L149.101 57.4688ZM144.925 61.2358L144.48 60.3402C142.862 61.1438 140.902 61.5654 138.567 61.5654V62.5654V63.5654C141.141 63.5654 143.419 63.1005 145.37 62.1314L144.925 61.2358ZM162.503 55.2017L161.503 55.1983L161.493 57.994L163.274 55.8386L162.503 55.2017ZM162.537 45.2642V44.2642H161.54L161.537 45.2608L162.537 45.2642ZM163.696 45.2642V46.2642H164.182L164.482 45.8819L163.696 45.2642ZM171.06 35.8892V34.8892H170.574L170.273 35.2715L171.06 35.8892ZM180.503 35.8892L181.278 36.5208L182.607 34.8892H180.503V35.8892ZM169.56 49.321V50.321H170.035L170.335 49.9527L169.56 49.321ZM167.361 49.321V48.321H166.89L166.59 48.6842L167.361 49.321ZM154.986 62.071H153.986V63.071H154.986V62.071ZM154.986 27.1619V26.1619H153.986V27.1619H154.986ZM163.321 27.1619H164.321V26.1619H163.321V27.1619ZM163.321 62.071V63.071H164.321V62.071H163.321ZM171.247 62.071L170.401 62.6041L170.695 63.071H171.247V62.071ZM164.395 51.196L163.662 50.5158L163.139 51.0791L163.549 51.7291L164.395 51.196ZM169.884 45.2813L170.72 44.7334L170.02 43.6641L169.151 44.6011L169.884 45.2813ZM180.878 62.071V63.071H182.728L181.714 61.5232L180.878 62.071ZM162.503 55.2017L163.503 55.2052L163.537 45.2676L162.537 45.2642L161.537 45.2608L161.503 55.1983L162.503 55.2017ZM162.537 45.2642V46.2642H163.696V45.2642V44.2642H162.537V45.2642ZM163.696 45.2642L164.482 45.8819L171.846 36.5069L171.06 35.8892L170.273 35.2715L162.91 44.6465L163.696 45.2642ZM171.06 35.8892V36.8892H180.503V35.8892V34.8892H171.06V35.8892ZM180.503 35.8892L179.728 35.2576L168.784 48.6894L169.56 49.321L170.335 49.9527L181.278 36.5208L180.503 35.8892ZM169.56 49.321V48.321H167.361V49.321V50.321H169.56V49.321ZM167.361 49.321L166.59 48.6842L161.732 54.5648L162.503 55.2017L163.274 55.8386L168.132 49.9579L167.361 49.321ZM154.986 62.071H155.986V27.1619H154.986H153.986V62.071H154.986ZM154.986 27.1619V28.1619H163.321V27.1619V26.1619H154.986V27.1619ZM163.321 27.1619H162.321V62.071H163.321H164.321V27.1619H163.321ZM163.321 62.071V61.071H154.986V62.071V63.071H163.321V62.071ZM171.247 62.071L172.093 61.5379L165.241 50.6629L164.395 51.196L163.549 51.7291L170.401 62.6041L171.247 62.071ZM164.395 51.196L165.128 51.8762L170.617 45.9615L169.884 45.2813L169.151 44.6011L163.662 50.5158L164.395 51.196ZM169.884 45.2813L169.047 45.8291L180.041 62.6189L180.878 62.071L181.714 61.5232L170.72 44.7334L169.884 45.2813ZM180.878 62.071V61.071H171.247V62.071V63.071H180.878V62.071ZM183.486 62.071H182.486V63.071H183.486V62.071ZM183.486 27.1619V26.1619H182.486V27.1619H183.486ZM191.923 27.1619H192.923V26.1619H191.923V27.1619ZM191.923 55.2188H190.923V56.2188H191.923V55.2188ZM206.446 55.2188H207.446V54.2188H206.446V55.2188ZM206.446 62.071V63.071H207.446V62.071H206.446ZM183.486 62.071H184.486V27.1619H183.486H182.486V62.071H183.486ZM183.486 27.1619V28.1619H191.923V27.1619V26.1619H183.486V27.1619ZM191.923 27.1619H190.923V55.2188H191.923H192.923V27.1619H191.923ZM191.923 55.2188V56.2188H206.446V55.2188V54.2188H191.923V55.2188ZM206.446 55.2188H205.446V62.071H206.446H207.446V55.2188H206.446ZM206.446 62.071V61.071H183.486V62.071V63.071H206.446V62.071ZM224.514 35.8892H225.514V34.8892H224.514V35.8892ZM224.514 42.0256V43.0256H225.514V42.0256H224.514ZM207.997 42.0256H206.997V43.0256H207.997V42.0256ZM207.997 35.8892V34.8892H206.997V35.8892H207.997ZM211.457 29.6165V28.6165H210.457V29.6165H211.457ZM219.793 29.6165H220.793V28.6165H219.793V29.6165ZM220.031 55.0824L219.137 55.5296L219.147 55.549L219.157 55.568L220.031 55.0824ZM220.764 55.7472L220.37 56.6663L220.384 56.6723L220.399 56.6779L220.764 55.7472ZM222.912 55.8494L223.071 56.8367L223.084 56.8347L223.096 56.8323L222.912 55.8494ZM223.73 55.679L224.709 55.4738L224.496 54.4568L223.488 54.7089L223.73 55.679ZM224.991 61.696L225.266 62.6576L226.161 62.4019L225.97 61.4909L224.991 61.696ZM223.304 62.1222L223.076 61.1486L223.072 61.1494L223.304 62.1222ZM220.73 62.446L220.685 61.4471L220.684 61.4471L220.73 62.446ZM215.702 61.7642L215.329 62.6922L215.338 62.6958L215.702 61.7642ZM212.514 59.1733L211.665 59.7011L211.669 59.707L212.514 59.1733ZM211.457 54.7585L212.457 54.7714V54.7585H211.457ZM224.514 35.8892H223.514V42.0256H224.514H225.514V35.8892H224.514ZM224.514 42.0256V41.0256H207.997V42.0256V43.0256H224.514V42.0256ZM207.997 42.0256H208.997V35.8892H207.997H206.997V42.0256H207.997ZM207.997 35.8892V36.8892H224.514V35.8892V34.8892H207.997V35.8892ZM211.457 29.6165V30.6165H219.793V29.6165V28.6165H211.457V29.6165ZM219.793 29.6165H218.793V53.8381H219.793H220.793V29.6165H219.793ZM219.793 53.8381H218.793C218.793 54.4415 218.885 55.0254 219.137 55.5296L220.031 55.0824L220.926 54.6352C220.86 54.5031 220.793 54.2574 220.793 53.8381H219.793ZM220.031 55.0824L219.157 55.568C219.434 56.0657 219.845 56.4414 220.37 56.6663L220.764 55.7472L221.158 54.828C221.047 54.7803 220.97 54.7128 220.905 54.5968L220.031 55.0824ZM220.764 55.7472L220.399 56.6779C220.862 56.86 221.373 56.9347 221.906 56.9347V55.9347V54.9347C221.553 54.9347 221.303 54.8843 221.13 54.8164L220.764 55.7472ZM221.906 55.9347V56.9347C222.284 56.9347 222.672 56.901 223.071 56.8367L222.912 55.8494L222.753 54.8622C222.447 54.9115 222.165 54.9347 221.906 54.9347V55.9347ZM222.912 55.8494L223.096 56.8323C223.464 56.7633 223.761 56.7021 223.973 56.6491L223.73 55.679L223.488 54.7089C223.336 54.7468 223.087 54.7993 222.728 54.8666L222.912 55.8494ZM223.73 55.679L222.751 55.8842L224.013 61.9012L224.991 61.696L225.97 61.4909L224.709 55.4738L223.73 55.679ZM224.991 61.696L224.717 60.7345C224.342 60.8416 223.798 60.9794 223.076 61.1486L223.304 62.1222L223.532 63.0958C224.265 62.9241 224.845 62.7778 225.266 62.6576L224.991 61.696ZM223.304 62.1222L223.072 61.1494C222.435 61.3011 221.643 61.4035 220.685 61.4471L220.73 62.446L220.776 63.445C221.818 63.3976 222.741 63.2841 223.536 63.095L223.304 62.1222ZM220.73 62.446L220.684 61.4471C218.828 61.5334 217.299 61.3142 216.065 60.8326L215.702 61.7642L215.338 62.6958C216.9 63.3051 218.723 63.5405 220.777 63.445L220.73 62.446ZM215.702 61.7642L216.074 60.8363C214.867 60.3513 213.977 59.6178 213.36 58.6396L212.514 59.1733L211.669 59.707C212.528 61.0697 213.764 62.0635 215.329 62.6922L215.702 61.7642ZM212.514 59.1733L213.364 58.6455C212.762 57.6777 212.436 56.4072 212.457 54.7714L211.457 54.7585L210.457 54.7457C210.433 56.6553 210.812 58.328 211.665 59.7011L212.514 59.1733ZM211.457 54.7585H212.457V29.6165H211.457H210.457V54.7585H211.457ZM233.634 60.946L233.15 61.8216L233.156 61.8249L233.634 60.946ZM229.065 56.2926L228.179 56.7557L228.182 56.7617L229.065 56.2926ZM229.082 41.9915L229.967 42.4585L229.968 42.4564L229.082 41.9915ZM233.599 37.2529L234.1 38.1183L234.104 38.1161L233.599 37.2529ZM245.582 36.4176L245.934 35.4813V35.4813L245.582 36.4176ZM252.213 43.2017L251.276 43.5521L251.277 43.5542L252.213 43.2017ZM253.151 50.9915V51.9915H254.151V50.9915H253.151ZM230.395 50.9915H229.395V51.9915H230.395V50.9915ZM230.395 46.1506V45.1506H229.395V46.1506H230.395ZM245.395 46.1506V47.1506H246.408L246.395 46.1378L245.395 46.1506ZM243.077 42.1619L242.585 43.0328L242.593 43.0374L242.602 43.042L243.077 42.1619ZM238.134 42.196L238.618 43.0709L238.628 43.0651L238.134 42.196ZM236.378 43.8835L237.23 44.4061L237.234 44.4L236.378 43.8835ZM235.696 46.2869L234.696 46.2616L234.696 46.2743V46.2869H235.696ZM236.327 54.0256L235.44 54.4877L235.443 54.4929L236.327 54.0256ZM238.116 55.8835L237.619 56.751V56.751L238.116 55.8835ZM242.889 56.2415L243.211 57.1884V57.1884L242.889 56.2415ZM244.44 55.3381L245.118 56.0736V56.0736L244.44 55.3381ZM245.412 53.8722L245.441 52.8726L244.725 52.8519L244.475 53.5231L245.412 53.8722ZM253.065 54.0938L254.049 54.2761L254.261 53.128L253.094 53.0942L253.065 54.0938ZM250.969 58.5767L250.206 57.9299L250.206 57.9305L250.969 58.5767ZM246.759 61.5256L247.129 62.4545L247.134 62.4524L246.759 61.5256ZM240.724 62.5654V61.5654C238.118 61.5654 235.925 61.0521 234.111 60.0672L233.634 60.946L233.156 61.8249C235.319 62.999 237.854 63.5654 240.724 63.5654V62.5654ZM233.634 60.946L234.117 60.0705C232.311 59.0742 230.926 57.665 229.949 55.8236L229.065 56.2926L228.182 56.7617C229.341 58.943 231.002 60.6361 233.15 61.8216L233.634 60.946ZM229.065 56.2926L229.952 55.8296C228.984 53.9779 228.48 51.7403 228.48 49.0824H227.48H226.48C226.48 51.9927 227.033 54.5619 228.179 56.7557L229.065 56.2926ZM227.48 49.0824H228.48C228.48 46.511 228.987 44.3132 229.967 42.4585L229.082 41.9915L228.198 41.5245C227.041 43.7153 226.48 46.2447 226.48 49.0824H227.48ZM229.082 41.9915L229.968 42.4564C230.95 40.5853 232.325 39.1464 234.1 38.1183L233.599 37.2529L233.098 36.3874C230.988 37.6093 229.351 39.3295 228.197 41.5266L229.082 41.9915ZM233.599 37.2529L234.104 38.1161C235.87 37.0836 237.979 36.5483 240.469 36.5483V35.5483V34.5483C237.686 34.5483 235.215 35.1494 233.095 36.3896L233.599 37.2529ZM240.469 35.5483V36.5483C242.228 36.5483 243.812 36.8216 245.231 37.354L245.582 36.4176L245.934 35.4813C244.262 34.8546 242.437 34.5483 240.469 34.5483V35.5483ZM245.582 36.4176L245.231 37.354C246.646 37.8845 247.857 38.6647 248.877 39.695L249.588 38.9915L250.299 38.2879C249.069 37.0456 247.61 36.1099 245.934 35.4813L245.582 36.4176ZM249.588 38.9915L248.877 39.695C249.892 40.72 250.695 41.9987 251.276 43.5521L252.213 43.2017L253.15 42.8513C252.481 41.0638 251.534 39.5358 250.299 38.2879L249.588 38.9915ZM252.213 43.2017L251.277 43.5542C251.852 45.0796 252.151 46.8599 252.151 48.9119H253.151H254.151C254.151 46.6685 253.824 44.642 253.149 42.8492L252.213 43.2017ZM253.151 48.9119H252.151V50.9915H253.151H254.151V48.9119H253.151ZM253.151 50.9915V49.9915H230.395V50.9915V51.9915H253.151V50.9915ZM230.395 50.9915H231.395V46.1506H230.395H229.395V50.9915H230.395ZM230.395 46.1506V47.1506H245.395V46.1506V45.1506H230.395V46.1506ZM245.395 46.1506L246.395 46.1378C246.381 45.0951 246.132 44.1313 245.625 43.273L244.764 43.7813L243.903 44.2895C244.215 44.8176 244.386 45.4333 244.395 46.1634L245.395 46.1506ZM244.764 43.7813L245.625 43.273C245.123 42.4213 244.426 41.7538 243.552 41.2819L243.077 42.1619L242.602 43.042C243.159 43.3429 243.587 43.7549 243.903 44.2895L244.764 43.7813ZM243.077 42.1619L243.568 41.2911C242.694 40.7976 241.708 40.5654 240.639 40.5654V41.5654V42.5654C241.411 42.5654 242.05 42.7308 242.585 43.0328L243.077 42.1619ZM240.639 41.5654V40.5654C239.551 40.5654 238.542 40.8126 237.639 41.327L238.134 42.196L238.628 43.0651C239.202 42.7386 239.864 42.5654 240.639 42.5654V41.5654ZM238.134 42.196L237.649 41.3212C236.759 41.8143 236.045 42.4997 235.522 43.367L236.378 43.8835L237.234 44.4C237.575 43.8356 238.031 43.396 238.618 43.0708L238.134 42.196ZM236.378 43.8835L235.525 43.361C234.994 44.2283 234.723 45.2038 234.696 46.2616L235.696 46.2869L236.696 46.3123C236.714 45.5746 236.898 44.9478 237.23 44.4061L236.378 43.8835ZM235.696 46.2869H234.696V51.2131H235.696H236.696V46.2869H235.696ZM235.696 51.2131H234.696C234.696 52.4142 234.933 53.5153 235.44 54.4877L236.327 54.0256L237.214 53.5634C236.879 52.9222 236.696 52.1483 236.696 51.2131H235.696ZM236.327 54.0256L235.443 54.4929C235.951 55.4538 236.68 56.2127 237.619 56.751L238.116 55.8835L238.614 55.0161C238.007 54.668 237.544 54.1882 237.211 53.5583L236.327 54.0256ZM238.116 55.8835L237.619 56.751C238.571 57.2968 239.67 57.5483 240.878 57.5483V56.5483V55.5483C239.949 55.5483 239.208 55.3566 238.614 55.0161L238.116 55.8835ZM240.878 56.5483V57.5483C241.709 57.5483 242.49 57.4333 243.211 57.1884L242.889 56.2415L242.568 55.2946C242.084 55.4588 241.524 55.5483 240.878 55.5483V56.5483ZM242.889 56.2415L243.211 57.1884C243.934 56.9428 244.575 56.5735 245.118 56.0736L244.44 55.3381L243.763 54.6025C243.442 54.8981 243.049 55.1311 242.568 55.2946L242.889 56.2415ZM244.44 55.3381L245.118 56.0736C245.672 55.5636 246.081 54.9402 246.349 54.2213L245.412 53.8722L244.475 53.5231C244.311 53.9633 244.073 54.3171 243.763 54.6025L244.44 55.3381ZM245.412 53.8722L245.383 54.8718L253.036 55.0933L253.065 54.0938L253.094 53.0942L245.441 52.8726L245.412 53.8722ZM253.065 54.0938L252.082 53.9114C251.794 55.4641 251.168 56.7963 250.206 57.9299L250.969 58.5767L251.731 59.2236C252.929 57.8117 253.7 56.1553 254.049 54.2761L253.065 54.0938ZM250.969 58.5767L250.206 57.9305C249.255 59.0525 247.992 59.9467 246.383 60.5988L246.759 61.5256L247.134 62.4524C249.002 61.6953 250.546 60.6236 251.732 59.223L250.969 58.5767ZM246.759 61.5256L246.388 60.5967C244.79 61.2338 242.909 61.5654 240.724 61.5654V62.5654V63.5654C243.108 63.5654 245.25 63.2037 247.129 62.4545L246.759 61.5256Z" fill="#0C1E40" mask="url(#path-14-outside-2_31_46)"/>
</svg>
