<svg width="258" height="75" viewBox="0 0 258 75" fill="none" xmlns="http://www.w3.org/2000/svg">
<rect x="3.75" y="54.5178" width="65.8298" height="7.74468" rx="1" fill="#02396C"/>
<path d="M60.867 33.22L68.4125 44.837H53.3215L60.867 33.22Z" fill="#02396C"/>
<rect x="46.75" y="44" width="23.234" height="15.4894" fill="#02396C"/>
<rect x="46.3458" y="31.2838" width="13.5532" height="13.5532" fill="#02396C"/>
<circle cx="15.367" cy="62.2625" r="5.80851" fill="#02396C"/>
<circle cx="57.9627" cy="62.2625" r="5.80851" fill="#02396C"/>
<path d="M21.95 62.0044H46.2167V54.421H7.54167C6.83693 54.421 6.48458 54.421 6.19156 54.4793C4.98827 54.7186 4.04763 55.6592 3.80827 56.8626C3.75 57.1556 3.75 57.5081 3.75 58.2127C3.75 58.9173 3.75 59.2698 3.80827 59.5628C4.04763 60.7662 4.98827 61.7068 6.19156 61.9461C6.48458 62.0044 6.83693 62.0044 7.54167 62.0044H9.81667" stroke="white" stroke-width="1.5" stroke-linecap="round" stroke-linejoin="round"/>
<path d="M52.2833 62.0044H46.2167V37.7377C46.2167 34.8778 46.2167 33.4479 47.1051 32.5595C47.9936 31.671 49.4235 31.671 52.2833 31.671H54.5134C57.8689 31.671 59.5467 31.671 60.9374 32.4585C62.3282 33.2459 63.1915 34.6846 64.9178 37.5618L68.7543 43.956C69.6134 45.3878 70.0432 46.1039 70.2631 46.8987C70.4833 47.6934 70.4833 48.5285 70.4833 50.1983V55.9377C70.4833 58.7975 70.4833 60.2274 69.5949 61.1159C68.7064 62.0044 67.2765 62.0044 64.4167 62.0044M52.2833 62.0044C52.2833 65.355 54.9994 68.071 58.35 68.071C61.7006 68.071 64.4167 65.355 64.4167 62.0044M52.2833 62.0044C52.2833 58.6537 54.9994 55.9377 58.35 55.9377C61.7006 55.9377 64.4167 58.6537 64.4167 62.0044M68.9667 46.8377H61.3833C58.5235 46.8377 57.0936 46.8377 56.2051 45.9492C55.3167 45.0608 55.3167 43.6309 55.3167 40.771V39.2544" stroke="white" stroke-width="1.5" stroke-linecap="round" stroke-linejoin="round"/>
<path d="M21.9499 62.0044C21.9499 65.355 19.2338 68.071 15.8833 68.071C12.5327 68.071 9.81659 65.355 9.81659 62.0044C9.81659 58.6538 12.5327 55.9377 15.8833 55.9377C19.2338 55.9377 21.9499 58.6538 21.9499 62.0044Z" stroke="white" stroke-width="1.5" stroke-linecap="round" stroke-linejoin="round"/>
<rect x="0.75" y="23.7451" width="42.265" height="28.1767" rx="5" fill="#02396C"/>
<path d="M1.49746 30.1203C1.01493 32.3399 0.75 34.7569 0.75 37.2855C0.75 39.8142 1.01493 42.2311 1.49746 44.4507C2.11937 47.3116 2.43032 48.7422 4.45139 50.3711C6.47246 52 8.50391 52 12.5668 52H31.2373C35.3003 52 37.3317 52 39.3527 50.3711C41.3737 48.7422 41.685 47.3116 42.3066 44.4507C42.7893 42.2311 43.0541 39.8142 43.0541 37.2855C43.0541 34.7569 42.7893 32.3399 42.3066 30.1203C41.685 27.2594 41.3737 25.8289 39.3527 24.2C37.3317 22.571 35.3003 22.571 31.2373 22.571H12.5668C8.50391 22.571 6.47246 22.571 4.45139 24.2C2.43032 25.8289 2.11937 27.2594 1.49746 30.1203Z" stroke="white" stroke-width="1.5" stroke-linecap="round" stroke-linejoin="round"/>
<path d="M29.2593 22.571V52M14.5448 52V22.571" stroke="white" stroke-width="1.5" stroke-linecap="round" stroke-linejoin="round"/>
<circle cx="36.1348" cy="19.3848" r="10.7693" fill="#D9D9D9"/>
<path d="M22.7812 6.03125C30.1562 -1.34369 42.1131 -1.34367 49.4883 6.03125C56.8632 13.4062 56.8632 25.3631 49.4883 32.7383L36.1348 46.0918L22.7812 32.7383C15.4063 25.3631 15.4063 13.4062 22.7812 6.03125ZM36.1348 10.2695C31.1004 10.2695 27.0195 14.3504 27.0195 19.3848C27.0195 24.419 31.1004 28.5 36.1348 28.5C41.169 28.5 45.25 24.419 45.25 19.3848C45.25 14.3504 41.169 10.2695 36.1348 10.2695ZM36.1348 15.5771C38.2378 15.5771 39.9424 17.2818 39.9424 19.3848C39.9424 21.4878 38.2378 23.1924 36.1348 23.1924C34.0318 23.1924 32.3271 21.4878 32.3271 19.3848C32.3272 17.2818 34.0318 15.5772 36.1348 15.5771Z" fill="#0591A6" stroke="white"/>
<path d="M83.392 62.071V27.1619H97.8125C100.426 27.1619 102.682 27.6733 104.58 28.696C106.489 29.7074 107.96 31.1222 108.994 32.9404C110.028 34.7472 110.545 36.8494 110.545 39.2472C110.545 41.6563 110.017 43.7642 108.96 45.571C107.915 47.3665 106.42 48.7585 104.477 49.7472C102.534 50.7358 100.227 51.2301 97.5568 51.2301H88.6591V44.5824H95.9886C97.2614 44.5824 98.3239 44.3608 99.1761 43.9176C100.04 43.4744 100.693 42.8551 101.136 42.0597C101.58 41.2529 101.801 40.3154 101.801 39.2472C101.801 38.1676 101.58 37.2358 101.136 36.4517C100.693 35.6563 100.04 35.0426 99.1761 34.6108C98.3125 34.179 97.25 33.9631 95.9886 33.9631H91.8295V62.071H83.392ZM114.705 62.071V35.8892H123.04V62.071H114.705ZM118.881 32.8381C117.71 32.8381 116.705 32.4517 115.864 31.679C115.023 30.8949 114.602 29.9517 114.602 28.8494C114.602 27.7585 115.023 26.8267 115.864 26.054C116.705 25.2699 117.71 24.8779 118.881 24.8779C120.063 24.8779 121.068 25.2699 121.898 26.054C122.739 26.8267 123.159 27.7585 123.159 28.8494C123.159 29.9517 122.739 30.8949 121.898 31.679C121.068 32.4517 120.063 32.8381 118.881 32.8381ZM140.567 62.5654C137.805 62.5654 135.436 61.9972 133.459 60.8608C131.493 59.7244 129.982 58.1449 128.925 56.1222C127.868 54.0881 127.339 51.7358 127.339 49.0654C127.339 46.3835 127.868 44.0313 128.925 42.0085C129.993 39.9744 131.51 38.3892 133.476 37.2529C135.453 36.1165 137.811 35.5483 140.55 35.5483C142.97 35.5483 145.078 35.9858 146.874 36.8608C148.68 37.7358 150.089 38.9744 151.101 40.5767C152.124 42.1676 152.663 44.0369 152.72 46.1847H144.93C144.771 44.8438 144.317 43.7926 143.567 43.0313C142.828 42.2699 141.862 41.8892 140.669 41.8892C139.703 41.8892 138.857 42.1619 138.129 42.7074C137.402 43.2415 136.834 44.0369 136.425 45.0938C136.027 46.1392 135.828 47.4347 135.828 48.9801C135.828 50.5256 136.027 51.8324 136.425 52.9006C136.834 53.9574 137.402 54.7585 138.129 55.304C138.857 55.8381 139.703 56.1051 140.669 56.1051C141.442 56.1051 142.124 55.9404 142.714 55.6108C143.317 55.2813 143.811 54.7983 144.197 54.1619C144.584 53.5142 144.828 52.7301 144.93 51.8097H152.72C152.641 53.9688 152.101 55.8551 151.101 57.4688C150.112 59.0824 148.72 60.3381 146.925 61.2358C145.141 62.1222 143.021 62.5654 140.567 62.5654ZM164.503 55.2017L164.537 45.2642H165.696L173.06 35.8892H182.503L171.56 49.321H169.361L164.503 55.2017ZM156.986 62.071V27.1619H165.321V62.071H156.986ZM173.247 62.071L166.395 51.196L171.884 45.2813L182.878 62.071H173.247ZM185.486 62.071V27.1619H193.923V55.2188H208.446V62.071H185.486ZM226.514 35.8892V42.0256H209.997V35.8892H226.514ZM213.457 29.6165H221.793V53.8381C221.793 54.3494 221.872 54.7642 222.031 55.0824C222.202 55.3892 222.446 55.6108 222.764 55.7472C223.082 55.8722 223.463 55.9347 223.906 55.9347C224.224 55.9347 224.56 55.9063 224.912 55.8494C225.276 55.7813 225.548 55.7244 225.73 55.679L226.991 61.696C226.594 61.8097 226.031 61.9517 225.304 62.1222C224.588 62.2926 223.73 62.4006 222.73 62.446C220.776 62.5369 219.099 62.3097 217.702 61.7642C216.315 61.2074 215.253 60.3438 214.514 59.1733C213.787 58.0029 213.435 56.5313 213.457 54.7585V29.6165ZM242.724 62.5654C239.986 62.5654 237.622 62.0256 235.634 60.946C233.656 59.8551 232.134 58.304 231.065 56.2926C230.009 54.2699 229.48 51.8665 229.48 49.0824C229.48 46.3779 230.014 44.0142 231.082 41.9915C232.151 39.9574 233.656 38.3779 235.599 37.2529C237.543 36.1165 239.832 35.5483 242.469 35.5483C244.332 35.5483 246.037 35.8381 247.582 36.4176C249.128 36.9972 250.463 37.8551 251.588 38.9915C252.713 40.1279 253.588 41.5313 254.213 43.2017C254.838 44.8608 255.151 46.7642 255.151 48.9119V50.9915H232.395V46.1506H247.395C247.384 45.2642 247.173 44.4744 246.764 43.7813C246.355 43.0881 245.793 42.5483 245.077 42.1619C244.372 41.7642 243.56 41.5654 242.639 41.5654C241.707 41.5654 240.872 41.7756 240.134 42.196C239.395 42.6051 238.81 43.1676 238.378 43.8835C237.946 44.5881 237.719 45.3892 237.696 46.2869V51.2131C237.696 52.2813 237.906 53.2188 238.327 54.0256C238.747 54.821 239.344 55.4404 240.116 55.8835C240.889 56.3267 241.81 56.5483 242.878 56.5483C243.616 56.5483 244.287 56.446 244.889 56.2415C245.491 56.0369 246.009 55.7358 246.44 55.3381C246.872 54.9404 247.196 54.4517 247.412 53.8722L255.065 54.0938C254.747 55.8097 254.048 57.304 252.969 58.5767C251.901 59.8381 250.497 60.821 248.759 61.5256C247.02 62.2188 245.009 62.5654 242.724 62.5654Z" fill="white"/>
</svg>
